<mxfile host="65bd71144e">
    <diagram id="e5f5WOEL3n1yJSV51MNv" name="Page-1">
        <mxGraphModel dx="4787" dy="3587" grid="1" gridSize="10" guides="1" tooltips="1" connect="1" arrows="1" fold="1" page="1" pageScale="1" pageWidth="3300" pageHeight="4681" math="0" shadow="0">
            <root>
                <mxCell id="0"/>
                <mxCell id="1" parent="0"/>
                <mxCell id="12" value="" style="whiteSpace=wrap;html=1;fillColor=transparent;strokeColor=#33FF33;container=0;" parent="1" vertex="1">
                    <mxGeometry x="150" y="170" width="1023" height="620" as="geometry"/>
                </mxCell>
                <mxCell id="13" value="&lt;font style=&quot;font-size: 36px;&quot;&gt;&lt;b style=&quot;&quot;&gt;Bounded Context&lt;/b&gt;&lt;/font&gt;" style="text;html=1;align=center;verticalAlign=middle;resizable=0;points=[];autosize=1;strokeColor=none;fillColor=none;container=0;" parent="1" vertex="1">
                    <mxGeometry x="501.5" y="90" width="320" height="60" as="geometry"/>
                </mxCell>
                <mxCell id="2" value="&lt;font style=&quot;font-size: 32px;&quot; color=&quot;#000000&quot;&gt;&lt;b style=&quot;&quot;&gt;Event&lt;/b&gt;&lt;/font&gt;" style="whiteSpace=wrap;html=1;fillColor=#FF8000;container=0;" parent="1" vertex="1">
                    <mxGeometry x="771.5" y="300" width="330" height="200" as="geometry"/>
                </mxCell>
                <mxCell id="6" value="&lt;font style=&quot;font-size: 32px;&quot; color=&quot;#000000&quot;&gt;&lt;b style=&quot;&quot;&gt;Command&lt;/b&gt;&lt;/font&gt;" style="whiteSpace=wrap;html=1;fillColor=#3399FF;container=0;" parent="1" vertex="1">
                    <mxGeometry x="411.5" y="300" width="330" height="200" as="geometry"/>
                </mxCell>
                <mxCell id="10" value="&lt;font style=&quot;font-size: 32px;&quot; color=&quot;#000000&quot;&gt;&lt;b style=&quot;&quot;&gt;Aggregate&lt;/b&gt;&lt;/font&gt;" style="whiteSpace=wrap;html=1;fillColor=#FFFF00;container=0;" parent="1" vertex="1">
                    <mxGeometry x="581.5" y="460" width="330" height="200" as="geometry"/>
                </mxCell>
                <mxCell id="11" value="&lt;font style=&quot;font-size: 32px;&quot; color=&quot;#000000&quot;&gt;&lt;b style=&quot;&quot;&gt;Role&lt;/b&gt;&lt;/font&gt;" style="whiteSpace=wrap;html=1;fillColor=#00FF00;container=0;" parent="1" vertex="1">
                    <mxGeometry x="221.5" y="300" width="160" height="270" as="geometry"/>
                </mxCell>
                <mxCell id="17" value="&lt;font style=&quot;font-size: 32px;&quot; color=&quot;#000000&quot;&gt;&lt;b style=&quot;&quot;&gt;Question&lt;/b&gt;&lt;/font&gt;" style="whiteSpace=wrap;html=1;fillColor=#FF3333;container=0;" parent="1" vertex="1">
                    <mxGeometry x="663.5" y="860" width="330" height="200" as="geometry"/>
                </mxCell>
                <mxCell id="19" value="&lt;font style=&quot;font-size: 32px;&quot; color=&quot;#000000&quot;&gt;&lt;b style=&quot;&quot;&gt;Comment&lt;/b&gt;&lt;/font&gt;" style="whiteSpace=wrap;html=1;fillColor=#B3B3B3;container=0;" parent="1" vertex="1">
                    <mxGeometry x="150" y="850" width="330" height="200" as="geometry"/>
                </mxCell>
                <mxCell id="20" value="" style="whiteSpace=wrap;html=1;fillColor=transparent;strokeColor=#33FF33;container=0;" parent="1" vertex="1">
                    <mxGeometry x="188.5" y="1660" width="1023" height="620" as="geometry"/>
                </mxCell>
                <mxCell id="21" value="&lt;font style=&quot;font-size: 36px;&quot;&gt;&lt;b style=&quot;&quot;&gt;Users&lt;/b&gt;&lt;/font&gt;" style="text;html=1;align=center;verticalAlign=middle;resizable=0;points=[];autosize=1;strokeColor=none;fillColor=none;container=0;" parent="1" vertex="1">
                    <mxGeometry x="640" y="1580" width="120" height="60" as="geometry"/>
                </mxCell>
                <mxCell id="22" value="&lt;font style=&quot;font-size: 32px;&quot; color=&quot;#000000&quot;&gt;&lt;b style=&quot;&quot;&gt;UserCreated&lt;/b&gt;&lt;/font&gt;" style="whiteSpace=wrap;html=1;fillColor=#FF8000;container=0;" parent="1" vertex="1">
                    <mxGeometry x="928.5" y="1790" width="330" height="200" as="geometry"/>
                </mxCell>
                <mxCell id="23" value="&lt;font style=&quot;font-size: 32px;&quot; color=&quot;#000000&quot;&gt;&lt;b style=&quot;&quot;&gt;CreateUser&lt;/b&gt;&lt;/font&gt;" style="whiteSpace=wrap;html=1;fillColor=#3399FF;container=0;" parent="1" vertex="1">
                    <mxGeometry x="450" y="1790" width="330" height="200" as="geometry"/>
                </mxCell>
                <mxCell id="24" value="&lt;font style=&quot;font-size: 32px;&quot; color=&quot;#000000&quot;&gt;&lt;b style=&quot;&quot;&gt;User&lt;/b&gt;&lt;/font&gt;" style="whiteSpace=wrap;html=1;fillColor=#FFFF00;container=0;" parent="1" vertex="1">
                    <mxGeometry x="688.5" y="1950" width="330" height="200" as="geometry"/>
                </mxCell>
                <mxCell id="25" value="&lt;font style=&quot;font-size: 32px;&quot; color=&quot;#000000&quot;&gt;&lt;b style=&quot;&quot;&gt;Anyone&lt;/b&gt;&lt;/font&gt;" style="whiteSpace=wrap;html=1;fillColor=#00FF00;container=0;" parent="1" vertex="1">
                    <mxGeometry x="260" y="1790" width="160" height="270" as="geometry"/>
                </mxCell>
                <mxCell id="27" value="&lt;font style=&quot;font-size: 32px;&quot; color=&quot;#000000&quot;&gt;&lt;b style=&quot;&quot;&gt;Input Data:&lt;br&gt;&lt;ul&gt;&lt;li&gt;&lt;font style=&quot;font-size: 32px;&quot; color=&quot;#000000&quot;&gt;&lt;b style=&quot;&quot;&gt;Email&lt;/b&gt;&lt;/font&gt;&lt;/li&gt;&lt;li&gt;&lt;font style=&quot;font-size: 32px;&quot; color=&quot;#000000&quot;&gt;&lt;b style=&quot;&quot;&gt;Password&lt;/b&gt;&lt;/font&gt;&lt;/li&gt;&lt;/ul&gt;&lt;/b&gt;&lt;/font&gt;" style="whiteSpace=wrap;html=1;fillColor=#B3B3B3;container=0;" parent="1" vertex="1">
                    <mxGeometry x="90" y="2140" width="330" height="260" as="geometry"/>
                </mxCell>
                <mxCell id="28" value="" style="whiteSpace=wrap;html=1;fillColor=transparent;strokeColor=#33FF33;container=0;" parent="1" vertex="1">
                    <mxGeometry x="1408.5" y="1330" width="1023" height="620" as="geometry"/>
                </mxCell>
                <mxCell id="29" value="&lt;font style=&quot;font-size: 36px;&quot;&gt;&lt;b style=&quot;&quot;&gt;Customers&lt;/b&gt;&lt;/font&gt;" style="text;html=1;align=center;verticalAlign=middle;resizable=0;points=[];autosize=1;strokeColor=none;fillColor=none;container=0;" parent="1" vertex="1">
                    <mxGeometry x="1815" y="1250" width="210" height="60" as="geometry"/>
                </mxCell>
                <mxCell id="30" value="&lt;font style=&quot;font-size: 32px;&quot; color=&quot;#000000&quot;&gt;&lt;b style=&quot;&quot;&gt;CustomerCreated&lt;/b&gt;&lt;/font&gt;" style="whiteSpace=wrap;html=1;fillColor=#FF8000;container=0;" parent="1" vertex="1">
                    <mxGeometry x="2030" y="1460" width="330" height="200" as="geometry"/>
                </mxCell>
                <mxCell id="31" value="&lt;font style=&quot;font-size: 32px;&quot; color=&quot;#000000&quot;&gt;&lt;b style=&quot;&quot;&gt;CreateCustomer&lt;/b&gt;&lt;/font&gt;" style="whiteSpace=wrap;html=1;fillColor=#3399FF;container=0;" parent="1" vertex="1">
                    <mxGeometry x="1670" y="1460" width="330" height="200" as="geometry"/>
                </mxCell>
                <mxCell id="32" value="&lt;font style=&quot;font-size: 32px;&quot; color=&quot;#000000&quot;&gt;&lt;b style=&quot;&quot;&gt;Customer&lt;/b&gt;&lt;/font&gt;" style="whiteSpace=wrap;html=1;fillColor=#FFFF00;container=0;" parent="1" vertex="1">
                    <mxGeometry x="1840" y="1620" width="330" height="200" as="geometry"/>
                </mxCell>
                <mxCell id="33" value="&lt;font style=&quot;font-size: 32px;&quot; color=&quot;#000000&quot;&gt;&lt;b style=&quot;&quot;&gt;System&lt;/b&gt;&lt;/font&gt;" style="whiteSpace=wrap;html=1;fillColor=#00FF00;container=0;" parent="1" vertex="1">
                    <mxGeometry x="1480" y="1460" width="160" height="270" as="geometry"/>
                </mxCell>
                <mxCell id="34" value="" style="whiteSpace=wrap;html=1;fillColor=transparent;strokeColor=#33FF33;container=0;" parent="1" vertex="1">
                    <mxGeometry x="1365" y="2110" width="1110" height="620" as="geometry"/>
                </mxCell>
                <mxCell id="35" value="&lt;font style=&quot;font-size: 36px;&quot;&gt;&lt;b style=&quot;&quot;&gt;Notifications&lt;/b&gt;&lt;/font&gt;" style="text;html=1;align=center;verticalAlign=middle;resizable=0;points=[];autosize=1;strokeColor=none;fillColor=none;container=0;" parent="1" vertex="1">
                    <mxGeometry x="1756.5" y="2030" width="240" height="60" as="geometry"/>
                </mxCell>
                <mxCell id="36" value="&lt;font style=&quot;font-size: 32px;&quot; color=&quot;#000000&quot;&gt;&lt;b style=&quot;&quot;&gt;EmailSent&lt;/b&gt;&lt;/font&gt;" style="whiteSpace=wrap;html=1;fillColor=#FF8000;container=0;" parent="1" vertex="1">
                    <mxGeometry x="1986.5" y="2240" width="408.5" height="200" as="geometry"/>
                </mxCell>
                <mxCell id="37" value="&lt;font style=&quot;font-size: 32px;&quot; color=&quot;#000000&quot;&gt;&lt;b style=&quot;&quot;&gt;SendEmail&lt;/b&gt;&lt;/font&gt;" style="whiteSpace=wrap;html=1;fillColor=#3399FF;container=0;" parent="1" vertex="1">
                    <mxGeometry x="1626.5" y="2240" width="330" height="200" as="geometry"/>
                </mxCell>
                <mxCell id="38" value="&lt;font style=&quot;font-size: 32px;&quot; color=&quot;#000000&quot;&gt;&lt;b style=&quot;&quot;&gt;Email&lt;/b&gt;&lt;/font&gt;" style="whiteSpace=wrap;html=1;fillColor=#FFFF00;container=0;" parent="1" vertex="1">
                    <mxGeometry x="1796.5" y="2400" width="330" height="200" as="geometry"/>
                </mxCell>
                <mxCell id="39" value="&lt;font style=&quot;font-size: 32px;&quot; color=&quot;#000000&quot;&gt;&lt;b style=&quot;&quot;&gt;System&lt;/b&gt;&lt;/font&gt;" style="whiteSpace=wrap;html=1;fillColor=#00FF00;container=0;" parent="1" vertex="1">
                    <mxGeometry x="1436.5" y="2240" width="160" height="270" as="geometry"/>
                </mxCell>
                <mxCell id="40" value="&lt;font color=&quot;#000000&quot;&gt;&lt;span style=&quot;font-size: 32px;&quot;&gt;&lt;b&gt;Confirmation Email&lt;/b&gt;&lt;/span&gt;&lt;/font&gt;" style="whiteSpace=wrap;html=1;fillColor=#B3B3B3;container=0;" parent="1" vertex="1">
                    <mxGeometry x="2030" y="2150" width="330" height="130" as="geometry"/>
                </mxCell>
            </root>
        </mxGraphModel>
    </diagram>
</mxfile>
